<?xml version="1.0" encoding="UTF-8" standalone="no"?>
<svg
   xmlns:dc="http://purl.org/dc/elements/1.1/"
   xmlns:cc="http://creativecommons.org/ns#"
   xmlns:rdf="http://www.w3.org/1999/02/22-rdf-syntax-ns#"
   xmlns:svg="http://www.w3.org/2000/svg"
   xmlns="http://www.w3.org/2000/svg"
   xmlns:sodipodi="http://sodipodi.sourceforge.net/DTD/sodipodi-0.dtd"
   xmlns:inkscape="http://www.inkscape.org/namespaces/inkscape"
   width="210mm"
   height="174mm"
   viewBox="0 0 210 174"
   version="1.1"
   id="svg8"
   inkscape:version="1.0 (4035a4fb49, 2020-05-01)"
   sodipodi:docname="logo.svg">
  <defs
     id="defs2">
    <rect
       x="1.6036172"
       y="171.05251"
       width="206.33208"
       height="73.766388"
       id="rect833" />
  </defs>
  <sodipodi:namedview
     id="base"
     pagecolor="#ffffff"
     bordercolor="#666666"
     borderopacity="1.0"
     inkscape:pageopacity="0.0"
     inkscape:pageshadow="2"
     inkscape:zoom="0.49497475"
     inkscape:cx="339.01186"
     inkscape:cy="400.29108"
     inkscape:document-units="mm"
     inkscape:current-layer="layer1"
     inkscape:document-rotation="0"
     showgrid="false"
     inkscape:window-width="1920"
     inkscape:window-height="1001"
     inkscape:window-x="-9"
     inkscape:window-y="-9"
     inkscape:window-maximized="1" />
  <metadata
     id="metadata5">
    <rdf:RDF>
      <cc:Work
         rdf:about="">
        <dc:format>image/svg+xml</dc:format>
        <dc:type
           rdf:resource="http://purl.org/dc/dcmitype/StillImage" />
        <dc:title></dc:title>
      </cc:Work>
    </rdf:RDF>
  </metadata>
  <g
     inkscape:label="Capa 1"
     inkscape:groupmode="layer"
     id="layer1">
    <path
       id="path831"
       d="M 97.2848,164.05506 C 62.982275,142.98957 33.051737,112.30279 22.667429,87.552242 20.320225,81.957746 21.000017,82.28852 11.848375,82.28852 2.7035727,82.28852 2.2943307,82.021664 4.8952805,77.755798 6.0542163,75.855005 6.0542163,75.855005 30.65,75.855005 c 24.595779,0 24.595779,0 28.637578,-3.795996 9.716959,-9.126067 16.696513,-9.902548 20.876154,-2.322356 2.565019,4.651853 7.846637,27.208561 9.854637,42.087157 1.573972,11.66266 2.65599,10.38502 3.714631,-4.38639 2.809139,-39.196049 8.11503,-83.979541 10.87555,-91.793768 1.82029,-5.152366 4.84124,-6.2749844 7.55505,-2.807419 1.48617,1.898914 1.48865,1.899672 3.11289,0.860326 14.80486,-9.4732209 34.48294,-10.0193241 50.67539,-1.406337 8.42248,4.480046 17.13833,13.921749 21.0695,22.82428 5.24153,11.869881 6.38439,22.41988 4.11233,37.96246 -0.4061,2.778043 -0.4061,2.778043 6.54551,2.847354 3.82336,0.03811 7.14893,0.03811 7.39023,0 0.76645,-0.120924 0.4762,1.387909 -0.75882,3.943989 -1.19746,2.478417 -1.19746,2.478417 -20.66029,2.303123 -22.53336,-0.202886 -20.10802,0.461 -29.24991,-8.008428 -8.59388,-7.961772 -8.9642,-7.608676 -13.84378,13.197669 -4.11767,17.557501 -7.72029,23.104731 -13.1691,20.277071 -5.60592,-2.9093 -8.77759,-14.864805 -13.39635,-50.498138 -2.8181,-21.740641 -3.64971,-27.296848 -4.24514,-28.360841 -1.47777,-2.640535 -1.83759,-0.268768 -7.09801,46.78388 -0.32364,2.895029 -0.87065,9.737872 -1.21555,15.20628 -0.3449,5.468465 -0.88505,12.442909 -1.20038,15.498699 -0.315329,3.0559 -0.992682,9.89876 -1.505175,15.20636 -1.434157,14.85345 -2.842104,19.36117 -6.173633,19.76558 -3.404205,0.4132 -5.373888,-4.86814 -7.522164,-20.17023 -2.30459,-16.41508 -4.668235,-28.977857 -7.672198,-40.777153 -2.757839,-10.83285 -4.712627,-11.64142 -12.049638,-4.984427 -7.478733,6.785619 -7.062749,6.657221 -22.279547,6.875034 -10.42466,0.148903 -13.109229,0.348966 -13.356718,0.993789 -0.750005,1.954582 7.872758,16.469171 15.455133,26.015367 6.446984,8.11679 21.349047,22.70226 31.429918,30.76222 10.214597,8.16696 26.081262,18.95078 27.883072,18.95078 1.29826,0 13.78478,-8.16199 21.78225,-14.23826 21.25704,-16.15076 36.53324,-32.34375 48.50131,-51.41208 2.11072,-3.362951 2.11072,-3.362951 5.59263,-3.362951 4.55674,0 4.67341,0.380887 1.75098,5.718092 -12.73536,23.258309 -40.61868,50.284409 -70.67276,68.500219 -6.47081,3.92186 -7.64237,3.91732 -14.11078,-0.0553 z m 33.74082,-65.800994 c 0.49758,-1.190783 1.831,-5.993951 2.96319,-10.673615 4.23034,-17.484858 6.04516,-21.886092 9.74967,-23.643979 4.50114,-2.135948 8.5986,-0.421903 16.6165,6.950747 5.43716,4.999594 5.43716,4.999594 13.70667,4.837497 8.26951,-0.162011 8.26951,-0.162011 9.08386,-3.086389 1.55292,-5.576241 1.63507,-18.215029 0.15989,-24.598906 -3.11941,-13.49903 -11.27108,-24.265609 -22.53901,-29.768983 -11.79033,-5.758544 -27.65247,-5.758836 -38.01584,-7.37e-4 -7.15627,3.976193 -7.32777,4.323424 -6.0791,12.307454 1.00368,6.417788 1.85943,12.658397 5.16992,37.699877 2.33712,17.678661 5.66575,32.142078 7.39729,32.142078 0.48529,0 1.28941,-0.97424 1.78692,-2.165023 z M 16.897866,67.102875 C 16.212586,64.943756 16.534262,54.036913 17.433206,48.951589 19.507625,37.216545 24.962329,26.979788 33.294147,19.185765 49.671388,3.8656365 76.891896,1.7364356 94.270602,14.416155 c 2.482681,1.811391 2.51256,1.874836 2.161282,4.588138 -0.835702,6.455163 -0.780511,6.42818 -5.414004,2.654108 C 75.206419,8.7797683 49.061903,12.050764 34.874917,28.682589 27.814312,36.959891 24.726856,46.031404 24.492853,59.18659 c -0.156255,8.772843 -0.156255,8.772843 -3.684762,8.945736 -3.127453,0.153514 -3.572013,0.03641 -3.910225,-1.029451 z"
       style="fill:#000000;stroke-width:0.584892" />
  </g>
</svg>
